<svg width="25" height="24" viewBox="0 0 25 24" fill="none" xmlns="http://www.w3.org/2000/svg">
<path d="M1.99623 11.3571C1.41983 8.65889 1.68304 6.42611 2.45399 4.68086C3.12271 3.16775 4.1729 2.02197 5.3894 1.25812C6.60706 0.493513 7.99141 0.11196 9.3277 0.126563C10.667 0.141541 11.9587 0.553798 12.9871 1.37756C13.522 1.80592 14.0469 2.43647 14.4733 3.12544C14.9017 3.8174 15.2328 4.57002 15.3778 5.23727C15.4255 5.45557 15.4686 5.68772 15.5113 5.91688C15.7242 7.05779 15.9229 8.12344 16.9117 8.33388C17.0017 8.35297 17.0589 8.43984 17.0391 8.52821C17.0197 8.61658 16.9312 8.67274 16.8411 8.65327C15.6361 8.39641 15.4179 7.22741 15.1844 5.97529C15.1436 5.75662 15.1024 5.53495 15.0524 5.30467C14.9151 4.67187 14.5988 3.9552 14.1895 3.29356C13.7821 2.63567 13.2832 2.0347 12.7773 1.62993C11.808 0.854097 10.59 0.465805 9.32465 0.451576C8.05054 0.437347 6.72951 0.801676 5.56717 1.53183C4.4033 2.26236 3.3989 3.35909 2.75803 4.80854C2.00806 6.50774 1.75705 8.69147 2.33231 11.3414C2.44522 11.3638 2.55432 11.4148 2.65541 11.4926C2.70042 11.5275 2.74315 11.5675 2.78435 11.6132C2.82631 11.3635 2.89536 11.1152 2.95334 10.9044C2.98347 10.7962 2.89955 11.0984 2.97241 10.8336C3.73688 8.06054 5.52826 6.9713 7.29256 6.26773C7.36465 6.2374 7.43675 6.20969 7.50809 6.18348C7.83386 6.05879 8.15735 5.94496 8.4713 5.83488C10.0769 5.27172 11.4319 4.79656 11.541 3.25574C11.5471 3.16588 11.6264 3.09736 11.718 3.10372C11.8095 3.10971 11.8793 3.1876 11.8729 3.27746C11.8641 3.40252 11.8484 3.52122 11.8267 3.63393C13.8985 4.03345 14.2212 5.71281 14.5138 7.23528C14.735 8.38667 14.938 9.44109 15.9203 9.6504C16.0103 9.6695 16.0675 9.75637 16.0477 9.84474C16.0278 9.9331 15.9397 9.98927 15.8497 9.9698C14.6519 9.71443 14.4291 8.55779 14.1865 7.29519C13.913 5.87269 13.6112 4.3038 11.7432 3.95108C11.6058 4.36258 11.3701 4.68647 11.063 4.95457C11.4563 5.07177 11.7889 5.2339 12.0735 5.43011C12.4359 5.68023 12.7197 5.98577 12.9509 6.32689C13.335 6.89379 13.4251 7.47829 13.5162 8.07027C13.6543 8.96743 13.7955 9.88368 15.0734 10.7161C15.1501 10.7659 15.1711 10.867 15.1203 10.9422C15.0696 11.0175 14.9666 11.0381 14.8899 10.9883C13.488 10.0754 13.3362 9.08687 13.187 8.11895C13.1016 7.56291 13.0169 7.01361 12.6736 6.50699C12.4641 6.19771 12.2082 5.92212 11.882 5.69671C11.5711 5.48253 11.1954 5.31291 10.7342 5.20395C10.3161 5.48253 9.80835 5.69746 9.25293 5.90302C9.31244 5.90639 9.36737 5.91164 9.41811 5.91763C11.6707 6.2007 12.0705 7.64192 12.4897 9.15053C12.7953 10.2499 13.1104 11.3874 14.2227 12.0663C14.3005 12.1138 14.325 12.2146 14.2761 12.2913C14.2277 12.3677 14.1251 12.3917 14.0469 12.3437C13.4449 11.976 13.0585 11.4979 12.7831 10.9688C12.7766 10.9628 12.7705 10.9557 12.7647 10.9482C12.0258 9.97017 11.3991 10.227 10.7719 10.4843C10.4099 10.6326 10.0475 10.7812 9.64775 10.7486C9.61304 10.7456 9.58252 10.7329 9.55734 10.7131C9.48181 10.6591 9.43146 10.597 9.40437 10.5389C9.38301 10.4936 9.37386 10.4483 9.37653 10.406C9.37996 10.3442 9.40552 10.2911 9.45129 10.2521C9.48334 10.2252 9.52225 10.2076 9.56764 10.202C9.60655 10.1971 9.64775 10.1918 9.6981 10.1847C9.73129 10.1802 9.75723 10.1765 9.76677 10.1746C10.0315 10.1188 10.2699 10.0409 10.4973 9.96643C10.8444 9.8526 11.1668 9.74776 11.5181 9.73278C11.787 9.72192 12.0541 9.76835 12.3169 9.93086C12.3398 9.94509 12.3627 9.96006 12.3852 9.97579C12.3074 9.73053 12.2379 9.48228 12.1696 9.23553C11.7805 7.83438 11.409 6.49576 9.37691 6.24039C9.1507 6.21194 8.80814 6.21306 8.40492 6.28158C8.17528 6.32052 7.92732 6.38156 7.67212 6.47067C5.90134 7.14616 4.05388 8.16313 3.29475 10.9164C3.23486 11.1343 3.31802 10.8314 3.27415 10.9883C3.17116 11.359 3.03307 11.857 3.09219 12.2082C3.10287 12.2464 3.11279 12.2861 3.12195 12.3265C3.12386 12.3336 3.12576 12.3407 3.12653 12.3479C3.14293 12.4261 3.15628 12.5085 3.16582 12.5954C3.17535 12.6849 3.10898 12.7654 3.01781 12.7751C2.92664 12.7845 2.84462 12.7193 2.8347 12.6298C2.82631 12.5538 2.81525 12.4823 2.80113 12.4145C2.78664 12.3699 2.77519 12.3239 2.7668 12.276C2.75269 12.2269 2.73666 12.1809 2.71988 12.137C2.64893 11.9581 2.55547 11.827 2.45056 11.7461C2.35863 11.675 2.25754 11.6435 2.15721 11.654C2.12364 11.6578 2.08931 11.666 2.05536 11.6787C1.77498 11.7854 1.63193 12.0562 1.57166 12.3786C1.474 12.8975 1.58577 13.5412 1.69754 13.922C1.87187 14.517 2.17056 15.0318 2.51122 15.4029C2.83279 15.7526 3.1868 15.9709 3.4996 16.0013C3.34129 15.5748 3.20091 15.1236 3.07961 14.6495C3.0571 14.5619 3.11165 14.4732 3.20091 14.4515C3.29018 14.4294 3.38058 14.4829 3.40271 14.5705C3.54729 15.1352 3.71933 15.6661 3.91617 16.1593C4.11682 16.6629 4.34189 17.1264 4.58794 17.5462C4.63371 17.6244 4.60625 17.7237 4.52652 17.7686C4.44679 17.8135 4.3457 17.7866 4.29993 17.7083C4.05121 17.2833 3.82423 16.8186 3.62282 16.3195C3.60336 16.327 3.582 16.3311 3.55988 16.3311C3.13683 16.3259 2.66991 16.0615 2.26517 15.6219C1.89133 15.2153 1.56555 14.6555 1.37672 14.0122C1.2558 13.6 1.13602 12.8983 1.24435 12.3201C1.32446 11.8937 1.52702 11.5305 1.9352 11.3751C1.9558 11.3672 1.97601 11.3605 1.99699 11.3545V11.3571H1.99623ZM4.52347 18.6706C4.88968 18.6706 5.22156 18.525 5.46188 18.2891C5.70183 18.0535 5.8506 17.7278 5.8506 17.368H6.18401C6.18401 17.7274 6.3324 18.0532 6.57272 18.2891C6.81267 18.5246 7.14455 18.6706 7.51114 18.6706V18.9979C7.14493 18.9979 6.81305 19.1435 6.57272 19.3794C6.33278 19.615 6.18401 19.9407 6.18401 20.3006H5.8506C5.8506 19.9411 5.70221 19.6153 5.46188 19.3794C5.22194 19.1439 4.89006 18.9979 4.52347 18.9979V18.6706ZM5.69725 18.5205C5.56717 18.6482 5.41611 18.7545 5.2494 18.8343C5.41649 18.914 5.56755 19.0203 5.69725 19.148C5.82733 19.2757 5.93567 19.424 6.01692 19.5876C6.09818 19.4236 6.20651 19.2753 6.33659 19.148C6.46667 19.0203 6.61774 18.914 6.78444 18.8343C6.61735 18.7545 6.46629 18.6482 6.33659 18.5205C6.20651 18.3928 6.09818 18.2445 6.01692 18.0809C5.93567 18.2445 5.82733 18.3932 5.69725 18.5205ZM23.074 0.82227C23.3315 0.82227 23.5649 0.924866 23.7335 1.09074C23.9021 1.25662 24.007 1.4854 24.007 1.73815C24.007 1.99089 23.9025 2.22005 23.7335 2.38555C23.5649 2.55105 23.3315 2.65402 23.074 2.65402C22.8165 2.65402 22.583 2.55143 22.4144 2.38555C22.2458 2.22005 22.1409 1.99089 22.1409 1.73815C22.1409 1.4854 22.2454 1.25624 22.4144 1.09074C22.5834 0.92524 22.8165 0.82227 23.074 0.82227ZM23.4978 1.32177C23.3894 1.21543 23.2395 1.14953 23.074 1.14953C22.9084 1.14953 22.7585 1.21543 22.6501 1.32177C22.5418 1.42811 22.4747 1.57527 22.4747 1.73777C22.4747 1.90028 22.5418 2.04743 22.6501 2.15377C22.7585 2.26011 22.9084 2.32601 23.074 2.32601C23.2395 2.32601 23.3894 2.26011 23.4978 2.15377C23.6061 2.04743 23.6732 1.90028 23.6732 1.73777C23.6732 1.57527 23.6061 1.42811 23.4978 1.32177ZM20.8344 7.49813C21.257 7.49813 21.6392 7.33001 21.9166 7.05854C22.1931 6.78707 22.3644 6.41114 22.3644 5.99626H22.6978C22.6978 6.41114 22.8691 6.78632 23.1457 7.05854C23.4222 7.33001 23.8052 7.49813 24.2279 7.49813V7.82539C23.8052 7.82539 23.423 7.99351 23.1457 8.26498C22.8691 8.53645 22.6978 8.91238 22.6978 9.32726H22.3644C22.3644 8.91238 22.1931 8.5372 21.9166 8.26498C21.64 7.99351 21.257 7.82539 20.8344 7.82539V7.49813ZM22.1519 7.28957C21.9948 7.44384 21.8101 7.57002 21.6057 7.66176C21.8101 7.7535 21.9948 7.87968 22.1519 8.03395C22.3091 8.18822 22.4377 8.36945 22.5311 8.57015C22.6246 8.36945 22.7531 8.18822 22.9103 8.03395C23.0675 7.87968 23.2521 7.7535 23.4566 7.66176C23.2521 7.57002 23.0675 7.44384 22.9103 7.28957C22.7531 7.1353 22.6246 6.95407 22.5311 6.75337C22.4377 6.95407 22.3091 7.1353 22.1519 7.28957ZM16.7381 3.74626C17.1291 3.74626 17.4828 3.59087 17.7391 3.33924C17.9955 3.08762 18.1538 2.74052 18.1538 2.35672H18.4872C18.4872 2.74052 18.6455 3.08762 18.9018 3.33924C19.1582 3.59087 19.5118 3.74626 19.9028 3.74626V4.07352C19.5118 4.07352 19.1582 4.22891 18.9018 4.48053C18.6455 4.73215 18.4872 5.07926 18.4872 5.46306H18.1538C18.1538 5.07926 17.9955 4.73215 17.7391 4.48053C17.4828 4.22891 17.1291 4.07352 16.7381 4.07352V3.74626ZM17.9749 3.57065C17.8333 3.70956 17.6674 3.82489 17.4843 3.90951C17.6678 3.99451 17.8333 4.10946 17.9749 4.24838C18.1164 4.3873 18.2339 4.55018 18.3201 4.72991C18.4067 4.5498 18.5238 4.3873 18.6653 4.24838C18.8068 4.10946 18.9728 3.99414 19.1559 3.90951C18.9724 3.82452 18.8068 3.70956 18.6653 3.57065C18.5238 3.43173 18.4063 3.26885 18.3201 3.08912C18.2335 3.26922 18.1164 3.43211 17.9749 3.57065ZM0.772476 21.8799C1.24168 21.8799 1.66626 21.6935 1.97334 21.3917C2.28081 21.0899 2.47078 20.6731 2.47078 20.2129H2.8038C2.8038 20.6735 2.99377 21.0902 3.30124 21.3917C3.6087 21.6935 4.03328 21.8799 4.50211 21.8799V22.2072C4.0329 22.2072 3.60832 22.3937 3.30124 22.6955C2.99377 22.9973 2.8038 23.414 2.8038 23.8742H2.4704C2.4704 23.4136 2.28043 22.9969 1.97296 22.6955C1.6655 22.3937 1.24092 22.2072 0.772095 22.2072V21.8799H0.772476ZM2.20909 21.6231C2.02942 21.7994 1.81618 21.9428 1.57967 22.0436C1.81618 22.1443 2.0298 22.2877 2.20909 22.4641C2.38876 22.6404 2.53487 22.8497 2.63748 23.0819C2.7401 22.8497 2.8862 22.64 3.06587 22.4641C3.24554 22.2881 3.45879 22.1443 3.6953 22.0436C3.45879 21.9428 3.24516 21.7994 3.06587 21.6231C2.88658 21.4467 2.7401 21.2374 2.63748 21.0052C2.53487 21.2374 2.38838 21.4467 2.20909 21.6231ZM7.52602 12.1857C7.59048 12.1221 7.69615 12.1217 7.761 12.185C7.82585 12.2483 7.82623 12.352 7.76176 12.4156C7.72514 12.4516 7.69005 12.4849 7.65648 12.5145C7.20825 12.9118 6.68449 13.0967 6.17905 13.0934C5.66978 13.0896 5.1815 12.8942 4.80881 12.5313C4.78058 12.5036 4.75426 12.477 4.73061 12.4512C4.66881 12.3842 4.67491 12.2808 4.74319 12.2205C4.81148 12.1599 4.91676 12.1659 4.97818 12.2329C5.00107 12.258 5.02319 12.2805 5.04341 12.3003C5.35393 12.6021 5.75867 12.7646 6.18095 12.7676C6.60629 12.771 7.05109 12.6122 7.43484 12.2718C7.46765 12.2423 7.49855 12.2138 7.52678 12.1857H7.52602ZM7.71179 10.7146C7.68661 10.734 7.65572 10.7471 7.621 10.7501C7.2216 10.7827 6.85921 10.6344 6.49681 10.4858C5.86967 10.2289 5.24254 9.97167 4.50401 10.9497C4.44946 11.022 4.34532 11.0373 4.2717 10.9838C4.20265 10.9336 4.18472 10.8407 4.22783 10.7696C4.45785 10.3499 4.70123 10.0885 4.953 9.9331C5.21584 9.7706 5.48248 9.72417 5.7518 9.73503C6.10352 9.74963 6.42548 9.85485 6.77261 9.96868C6.99959 10.0432 7.23839 10.1207 7.50313 10.1769C7.51266 10.1787 7.5386 10.1825 7.57179 10.187C7.62215 10.1941 7.66334 10.1993 7.70225 10.2042C7.74727 10.2098 7.78656 10.2274 7.8186 10.2544C7.86438 10.2933 7.88994 10.3465 7.89375 10.4083C7.89642 10.4506 7.88727 10.4959 7.86591 10.5412C7.83844 10.5989 7.78847 10.661 7.71294 10.7153L7.71179 10.7146ZM9.50737 12.4149C9.44328 12.3509 9.44405 12.2471 9.50928 12.1842C9.57451 12.1213 9.68017 12.1221 9.74426 12.1861C9.77936 12.2209 9.81636 12.2561 9.85603 12.2906C10.2303 12.6178 10.6598 12.7702 11.0714 12.7669C11.4803 12.7635 11.8732 12.6066 12.1769 12.3149C12.2025 12.2902 12.2292 12.2629 12.2566 12.2325C12.318 12.1651 12.4229 12.1588 12.4916 12.219C12.5603 12.2793 12.5668 12.3823 12.5053 12.4497C12.4763 12.4815 12.4447 12.5145 12.41 12.5474C12.0438 12.8994 11.5688 13.0885 11.0741 13.0926C10.5824 13.0967 10.0727 12.9181 9.6344 12.5343C9.5932 12.498 9.55048 12.4583 9.50699 12.4145H9.50737V12.4149ZM7.34672 20.4672C7.25975 20.438 7.21283 20.3459 7.24258 20.2601C7.27234 20.1747 7.36618 20.1287 7.45354 20.1579C7.92847 20.3167 8.42171 20.3713 8.92296 20.3118C9.4101 20.2537 9.90601 20.0875 10.4012 19.8037C10.4809 19.7587 10.5824 19.7853 10.6281 19.8628C10.6739 19.9411 10.6468 20.0407 10.5679 20.0856C10.0323 20.3923 9.49364 20.5724 8.96187 20.6357C8.41103 20.702 7.86896 20.6417 7.34672 20.4672Z" fill="#856B59"/>
</svg>
