<svg width="16" height="16" viewBox="0 0 16 16" fill="none" xmlns="http://www.w3.org/2000/svg">
<g clip-path="url(#clip0_47_1477)">
<path d="M14.2035 2.23776H13.523V1.69251C13.523 1.4183 13.4152 1.15506 13.223 0.959513C13.0785 0.813647 12.8939 0.71412 12.6926 0.673624C12.4913 0.633128 12.2825 0.653499 12.0929 0.732139C11.9032 0.810779 11.7413 0.944124 11.6277 1.11517C11.5142 1.28621 11.4541 1.48721 11.4552 1.69251V2.23776H4.545V1.69251C4.54402 1.41821 4.43489 1.15537 4.24131 0.961029C4.04772 0.766694 3.7853 0.656552 3.511 0.654513C3.23636 0.655374 2.97328 0.765146 2.77948 0.959744C2.58568 1.15434 2.47698 1.41787 2.47725 1.69251V2.23776H1.7965C1.45277 2.23816 1.12323 2.37488 0.880175 2.61794C0.63712 2.86099 0.500397 3.19053 0.5 3.53426V14.05C0.500397 14.3937 0.63712 14.7233 0.880175 14.9663C1.12323 15.2094 1.45277 15.3461 1.7965 15.3465H14.2035C14.5472 15.3461 14.8768 15.2094 15.1198 14.9663C15.3629 14.7233 15.4996 14.3937 15.5 14.05V3.53426C15.4996 3.19053 15.3629 2.86099 15.1198 2.61794C14.8768 2.37488 14.5472 2.23816 14.2035 2.23776ZM11.9552 1.69251C11.9544 1.58664 11.9851 1.48292 12.0434 1.39453C12.1017 1.30614 12.1849 1.23708 12.2825 1.19613C12.3802 1.15517 12.4878 1.14419 12.5917 1.16455C12.6956 1.18492 12.7911 1.23573 12.866 1.31051C12.9664 1.41233 13.0228 1.54952 13.023 1.69251V3.51101C13.0245 3.58209 13.0119 3.65277 12.9857 3.71889C12.9596 3.78501 12.9205 3.84524 12.8708 3.89605C12.8211 3.94687 12.7617 3.98724 12.6961 4.01481C12.6306 4.04237 12.5602 4.05657 12.4891 4.05657C12.418 4.05657 12.3476 4.04237 12.2821 4.01481C12.2166 3.98724 12.1572 3.94687 12.1075 3.89605C12.0577 3.84524 12.0187 3.78501 11.9925 3.71889C11.9664 3.65277 11.9537 3.58209 11.9552 3.51101V1.69251ZM2.97725 1.69251C2.97685 1.55044 3.03282 1.41401 3.13288 1.31315C3.23295 1.21229 3.36893 1.15524 3.511 1.15451C3.58091 1.15463 3.65009 1.16872 3.71449 1.19593C3.77888 1.22315 3.8372 1.26296 3.886 1.31301C3.93632 1.36259 3.97628 1.42166 4.00358 1.48681C4.03087 1.55196 4.04495 1.62188 4.045 1.69251V3.51101C4.04654 3.58209 4.03387 3.65277 4.00773 3.71889C3.98159 3.78501 3.94251 3.84524 3.89278 3.89605C3.84306 3.94687 3.78368 3.98724 3.71814 4.01481C3.65261 4.04237 3.58222 4.05657 3.51113 4.05657C3.44003 4.05657 3.36964 4.04237 3.30411 4.01481C3.23857 3.98724 3.17919 3.94687 3.12947 3.89605C3.07974 3.84524 3.04066 3.78501 3.01452 3.71889C2.98838 3.65277 2.97571 3.58209 2.97725 3.51101V1.69251ZM1.7965 2.73776H2.47725V3.51101C2.47512 3.64814 2.50028 3.78431 2.55128 3.91162C2.60228 4.03892 2.6781 4.15481 2.77431 4.25253C2.87053 4.35026 2.98522 4.42786 3.11172 4.48084C3.23822 4.53381 3.37399 4.56109 3.51113 4.56109C3.64826 4.56109 3.78403 4.53381 3.91053 4.48084C4.03703 4.42786 4.15172 4.35026 4.24794 4.25253C4.34415 4.15481 4.41997 4.03892 4.47097 3.91162C4.52197 3.78431 4.54713 3.64814 4.545 3.51101V2.73776H11.4552V3.51101C11.4531 3.64814 11.4783 3.78431 11.5293 3.91162C11.5803 4.03892 11.6561 4.15481 11.7523 4.25253C11.8485 4.35026 11.9632 4.42786 12.0897 4.48084C12.2162 4.53381 12.352 4.56109 12.4891 4.56109C12.6263 4.56109 12.762 4.53381 12.8885 4.48084C13.015 4.42786 13.1297 4.35026 13.2259 4.25253C13.3222 4.15481 13.398 4.03892 13.449 3.91162C13.5 3.78431 13.5251 3.64814 13.523 3.51101V2.73776H14.2035C14.4147 2.73796 14.6172 2.82194 14.7665 2.97127C14.9158 3.1206 14.9998 3.32308 15 3.53426V5.20326H1V3.53426C1.00026 3.3231 1.08427 3.12066 1.23358 2.97135C1.3829 2.82203 1.58534 2.73803 1.7965 2.73776ZM14.2035 14.8455H1.7965C1.58551 14.8452 1.38322 14.7614 1.23393 14.6123C1.08465 14.4632 1.00053 14.261 1 14.05V5.70326H15V14.05C14.9995 14.261 14.9154 14.4632 14.7661 14.6124C14.6168 14.7615 14.4145 14.8453 14.2035 14.8455Z" fill="#605851"/>
<path d="M4.08275 6.29025H2.3855C2.31919 6.29025 2.25561 6.31659 2.20872 6.36348C2.16184 6.41036 2.1355 6.47395 2.1355 6.54025V8.2375C2.1355 8.30381 2.16184 8.3674 2.20872 8.41428C2.25561 8.46116 2.31919 8.4875 2.3855 8.4875H4.08275C4.14905 8.4875 4.21264 8.46116 4.25952 8.41428C4.30641 8.3674 4.33275 8.30381 4.33275 8.2375V6.54025C4.33275 6.47395 4.30641 6.41036 4.25952 6.36348C4.21264 6.31659 4.14905 6.29025 4.08275 6.29025ZM3.83275 7.9875H2.6355V6.79025H3.83275V7.9875Z" fill="#605851"/>
<path d="M7.25999 6.29025H5.56274C5.49644 6.29025 5.43285 6.31659 5.38597 6.36348C5.33908 6.41036 5.31274 6.47395 5.31274 6.54025V8.2375C5.31274 8.30381 5.33908 8.3674 5.38597 8.41428C5.43285 8.46116 5.49644 8.4875 5.56274 8.4875H7.25999C7.3263 8.4875 7.38989 8.46116 7.43677 8.41428C7.48365 8.3674 7.50999 8.30381 7.50999 8.2375V6.54025C7.50999 6.47395 7.48365 6.41036 7.43677 6.36348C7.38989 6.31659 7.3263 6.29025 7.25999 6.29025ZM7.00999 7.9875H5.81274V6.79025H7.00999V7.9875Z" fill="#605851"/>
<path d="M10.4372 6.29025H8.73999C8.67369 6.29025 8.6101 6.31659 8.56321 6.36348C8.51633 6.41036 8.48999 6.47395 8.48999 6.54025V8.2375C8.48999 8.30381 8.51633 8.3674 8.56321 8.41428C8.6101 8.46116 8.67369 8.4875 8.73999 8.4875H10.4372C10.5035 8.4875 10.5671 8.46116 10.614 8.41428C10.6609 8.3674 10.6872 8.30381 10.6872 8.2375V6.54025C10.6872 6.47395 10.6609 6.41036 10.614 6.36348C10.5671 6.31659 10.5035 6.29025 10.4372 6.29025ZM10.1872 7.9875H8.98999V6.79025H10.1872V7.9875Z" fill="#605851"/>
<path d="M13.6145 6.29025H11.9172C11.8509 6.29025 11.7873 6.31659 11.7405 6.36348C11.6936 6.41036 11.6672 6.47395 11.6672 6.54025V8.2375C11.6672 8.30381 11.6936 8.3674 11.7405 8.41428C11.7873 8.46116 11.8509 8.4875 11.9172 8.4875H13.6145C13.6808 8.4875 13.7444 8.46116 13.7913 8.41428C13.8381 8.3674 13.8645 8.30381 13.8645 8.2375V6.54025C13.8645 6.47395 13.8381 6.41036 13.7913 6.36348C13.7444 6.31659 13.6808 6.29025 13.6145 6.29025ZM13.3645 7.9875H12.1672V6.79025H13.3645V7.9875Z" fill="#605851"/>
<path d="M4.08275 9.229H2.3855C2.31919 9.229 2.25561 9.25534 2.20872 9.30223C2.16184 9.34911 2.1355 9.4127 2.1355 9.479V11.175C2.1355 11.2413 2.16184 11.3049 2.20872 11.3518C2.25561 11.3987 2.31919 11.425 2.3855 11.425H4.08275C4.14905 11.425 4.21264 11.3987 4.25952 11.3518C4.30641 11.3049 4.33275 11.2413 4.33275 11.175V9.479C4.33275 9.4127 4.30641 9.34911 4.25952 9.30223C4.21264 9.25534 4.14905 9.229 4.08275 9.229ZM3.83275 10.926H2.6355V9.729H3.83275V10.926Z" fill="#605851"/>
<path d="M7.25999 9.229H5.56274C5.49644 9.229 5.43285 9.25534 5.38597 9.30223C5.33908 9.34911 5.31274 9.4127 5.31274 9.479V11.175C5.31274 11.2413 5.33908 11.3049 5.38597 11.3518C5.43285 11.3987 5.49644 11.425 5.56274 11.425H7.25999C7.3263 11.425 7.38989 11.3987 7.43677 11.3518C7.48365 11.3049 7.50999 11.2413 7.50999 11.175V9.479C7.50999 9.4127 7.48365 9.34911 7.43677 9.30223C7.38989 9.25534 7.3263 9.229 7.25999 9.229ZM7.00999 10.926H5.81274V9.729H7.00999V10.926Z" fill="#605851"/>
<path d="M10.4372 9.229H8.73999C8.67369 9.229 8.6101 9.25534 8.56321 9.30223C8.51633 9.34911 8.48999 9.4127 8.48999 9.479V11.175C8.48999 11.2413 8.51633 11.3049 8.56321 11.3518C8.6101 11.3987 8.67369 11.425 8.73999 11.425H10.4372C10.5035 11.425 10.5671 11.3987 10.614 11.3518C10.6609 11.3049 10.6872 11.2413 10.6872 11.175V9.479C10.6872 9.4127 10.6609 9.34911 10.614 9.30223C10.5671 9.25534 10.5035 9.229 10.4372 9.229ZM10.1872 10.926H8.98999V9.729H10.1872V10.926Z" fill="#605851"/>
<path d="M13.6145 9.229H11.9172C11.8509 9.229 11.7873 9.25534 11.7405 9.30223C11.6936 9.34911 11.6672 9.4127 11.6672 9.479V11.175C11.6672 11.2413 11.6936 11.3049 11.7405 11.3518C11.7873 11.3987 11.8509 11.425 11.9172 11.425H13.6145C13.6808 11.425 13.7444 11.3987 13.7913 11.3518C13.8381 11.3049 13.8645 11.2413 13.8645 11.175V9.479C13.8645 9.4127 13.8381 9.34911 13.7913 9.30223C13.7444 9.25534 13.6808 9.229 13.6145 9.229ZM13.3645 10.926H12.1672V9.729H13.3645V10.926Z" fill="#605851"/>
<path d="M4.08275 12.1675H2.3855C2.31919 12.1675 2.25561 12.1939 2.20872 12.2407C2.16184 12.2876 2.1355 12.3512 2.1355 12.4175V14.1148C2.1355 14.1811 2.16184 14.2447 2.20872 14.2915C2.25561 14.3384 2.31919 14.3648 2.3855 14.3648H4.08275C4.14905 14.3648 4.21264 14.3384 4.25952 14.2915C4.30641 14.2447 4.33275 14.1811 4.33275 14.1148V12.4175C4.33275 12.3512 4.30641 12.2876 4.25952 12.2407C4.21264 12.1939 4.14905 12.1675 4.08275 12.1675ZM3.83275 13.8648H2.6355V12.6675H3.83275V13.8648Z" fill="#605851"/>
<path d="M7.25999 12.1675H5.56274C5.49644 12.1675 5.43285 12.1939 5.38597 12.2407C5.33908 12.2876 5.31274 12.3512 5.31274 12.4175V14.1148C5.31274 14.1811 5.33908 14.2447 5.38597 14.2915C5.43285 14.3384 5.49644 14.3648 5.56274 14.3648H7.25999C7.3263 14.3648 7.38989 14.3384 7.43677 14.2915C7.48365 14.2447 7.50999 14.1811 7.50999 14.1148V12.4175C7.50999 12.3512 7.48365 12.2876 7.43677 12.2407C7.38989 12.1939 7.3263 12.1675 7.25999 12.1675ZM7.00999 13.8648H5.81274V12.6675H7.00999V13.8648Z" fill="#605851"/>
<path d="M10.4372 12.1675H8.73999C8.67369 12.1675 8.6101 12.1939 8.56321 12.2407C8.51633 12.2876 8.48999 12.3512 8.48999 12.4175V14.1148C8.48999 14.1811 8.51633 14.2447 8.56321 14.2915C8.6101 14.3384 8.67369 14.3648 8.73999 14.3648H10.4372C10.5035 14.3648 10.5671 14.3384 10.614 14.2915C10.6609 14.2447 10.6872 14.1811 10.6872 14.1148V12.4175C10.6872 12.3512 10.6609 12.2876 10.614 12.2407C10.5671 12.1939 10.5035 12.1675 10.4372 12.1675ZM10.1872 13.8648H8.98999V12.6675H10.1872V13.8648Z" fill="#605851"/>
<path d="M13.6145 12.1675H11.9172C11.8509 12.1675 11.7873 12.1939 11.7405 12.2407C11.6936 12.2876 11.6672 12.3512 11.6672 12.4175V14.1148C11.6672 14.1811 11.6936 14.2447 11.7405 14.2915C11.7873 14.3384 11.8509 14.3648 11.9172 14.3648H13.6145C13.6808 14.3648 13.7444 14.3384 13.7913 14.2915C13.8381 14.2447 13.8645 14.1811 13.8645 14.1148V12.4175C13.8645 12.3512 13.8381 12.2876 13.7913 12.2407C13.7444 12.1939 13.6808 12.1675 13.6145 12.1675ZM13.3645 13.8648H12.1672V12.6675H13.3645V13.8648Z" fill="#605851"/>
</g>
<defs>
<clipPath id="clip0_47_1477">
<rect width="16" height="16" fill="white"/>
</clipPath>
</defs>
</svg>
