<svg width="24" height="24" viewBox="0 0 24 24" fill="none" xmlns="http://www.w3.org/2000/svg">
<path d="M16.9587 20.8557H16.8788C15.9882 20.809 15.1127 20.6069 14.2918 20.2583C12.2293 19.4399 10.0092 17.8736 8.0384 15.8205C6.0676 13.7674 4.57656 11.5049 3.8334 9.41891C3.10199 7.3705 3.1702 5.7266 4.01684 4.91053C4.11326 4.81646 4.21439 4.71533 4.31787 4.6095C4.99283 3.92748 5.83477 3.07614 6.98009 3.14669C7.76794 3.19373 8.49935 3.66644 9.21429 4.58834C11.3309 7.31641 10.155 8.4194 9.14374 9.39069L9.05202 9.47771L9.01439 9.58824C9.05672 9.87751 9.36951 10.7006 11.2886 12.6997C11.9693 13.4369 12.7199 14.1063 13.5298 14.6987C13.7631 14.8734 14.0249 15.0063 14.3036 15.0914L14.5387 14.9315C15.543 13.9438 16.6977 12.8737 19.3082 15.0514C20.2042 15.7993 20.6487 16.5472 20.6675 17.3397C20.6934 18.4898 19.8162 19.2964 19.1106 19.9432L19.0495 19.9902C18.9601 20.0725 18.8707 20.1525 18.7908 20.2254C18.3745 20.644 17.7419 20.8557 16.9587 20.8557ZM6.84604 4.0827C6.15461 4.0827 5.53139 4.71298 4.98107 5.27036L4.66358 5.58785C4.11797 6.1123 4.13678 7.4928 4.71062 9.11553C5.41615 11.0769 6.82723 13.2312 8.70866 15.1808C10.5901 17.1304 12.6996 18.6144 14.6305 19.3858C15.3488 19.6927 16.1153 19.8717 16.8952 19.9149C17.4691 19.9149 17.8924 19.8044 18.144 19.5622L18.4192 19.3058L18.4709 19.2588C19.0989 18.685 19.7432 18.0829 19.7268 17.3774C19.7268 16.8741 19.3811 16.3543 18.7061 15.7923C16.7094 14.1272 16.1191 14.694 15.1667 15.6347C15.1461 15.656 15.1232 15.6749 15.0985 15.6911L14.6893 15.9616C14.6237 16.0045 14.5486 16.0304 14.4705 16.0368C14.0895 16.0698 13.6051 15.8887 13.0007 15.4771C12.1362 14.8523 11.3358 14.1433 10.6113 13.3605C8.91091 11.5802 8.07838 10.3479 8.06897 9.5365C8.06717 9.48375 8.07515 9.43113 8.09249 9.38128L8.19597 9.07085C8.2201 8.99797 8.26121 8.93187 8.31591 8.878L8.49464 8.70867C9.47299 7.76795 10.0609 7.21999 8.47113 5.16453C7.93257 4.45899 7.42458 4.11563 6.9213 4.08505L6.84604 4.0827Z" fill="#605851"/>
</svg>
