<svg width="24" height="24" viewBox="0 0 24 24" fill="none" xmlns="http://www.w3.org/2000/svg">
<path d="M23.3532 10.392C23.3524 10.3914 23.3519 10.3907 23.3513 10.3902L13.5612 0.600404C13.1439 0.182923 12.5891 -0.046875 11.9989 -0.046875C11.4088 -0.046875 10.854 0.182923 10.4365 0.600404L0.651515 10.3852C0.648219 10.3885 0.64474 10.392 0.641627 10.3953C-0.215308 11.2572 -0.213843 12.6555 0.645839 13.5152C1.0386 13.9082 1.55716 14.1356 2.11178 14.1596C2.13449 14.1618 2.15719 14.1629 2.18008 14.1629H2.5701V21.3674C2.5701 22.7932 3.73026 23.9532 5.1561 23.9532H8.98631C9.37468 23.9532 9.68944 23.6382 9.68944 23.25V17.6016C9.68944 16.951 10.2188 16.4218 10.8694 16.4218H13.1285C13.7791 16.4218 14.3083 16.951 14.3083 17.6016V23.25C14.3083 23.6382 14.623 23.9532 15.0114 23.9532H18.8416C20.2676 23.9532 21.4276 22.7932 21.4276 21.3674V14.1629H21.7894C22.3794 14.1629 22.9342 13.9331 23.3519 13.5154C24.2125 12.6544 24.2128 11.2535 23.3532 10.392ZM22.3574 12.5211C22.2056 12.6729 22.0039 12.7566 21.7894 12.7566H20.7245C20.3361 12.7566 20.0214 13.0714 20.0214 13.4597V21.3674C20.0214 22.0177 19.4922 22.5469 18.8416 22.5469H15.7145V17.6016C15.7145 16.1758 14.5546 15.0156 13.1285 15.0156H10.8694C9.44334 15.0156 8.28318 16.1758 8.28318 17.6016V22.5469H5.1561C4.50571 22.5469 3.97635 22.0177 3.97635 21.3674V13.4597C3.97635 13.0714 3.66159 12.7566 3.27322 12.7566H2.22659C2.21561 12.7559 2.2048 12.7553 2.19363 12.7552C1.98416 12.7515 1.78769 12.6684 1.64047 12.521C1.32736 12.2079 1.32736 11.6983 1.64047 11.385C1.64065 11.385 1.64065 11.3848 1.64084 11.3846L1.64139 11.3841L11.4311 1.59467C11.5828 1.44287 11.7843 1.35938 11.9989 1.35938C12.2134 1.35938 12.415 1.44287 12.5668 1.59467L22.3543 11.382C22.3558 11.3835 22.3574 11.385 22.3589 11.3864C22.6704 11.7001 22.6698 12.2086 22.3574 12.5211Z" fill="#BC967E"/>
</svg>
