<svg width="19" height="24" viewBox="0 0 19 24" fill="none" xmlns="http://www.w3.org/2000/svg">
<path d="M9.5 0.25C14.5961 0.25 18.7498 4.44547 18.75 9.60449C18.75 11.5348 18.172 13.3825 17.085 14.9492L17.0811 14.9541C16.9612 15.1358 15.1091 17.9329 12.2607 22.2646C11.6422 23.1914 10.6175 23.7471 9.51758 23.749C8.41603 23.747 7.39192 23.2017 6.77441 22.2764C5.31608 20.0647 3.42038 17.1986 2.48145 15.79L1.91309 14.9453C0.827305 13.3669 0.25 11.5208 0.25 9.60449C0.250166 4.44547 4.40388 0.25 9.5 0.25ZM9.51172 2.13965C5.44052 2.13973 2.13673 5.48337 2.13672 9.59277C2.13672 11.1181 2.59079 12.5951 3.46191 13.8496V13.8506C3.61535 14.0773 6.36989 18.2305 8.3418 21.209L8.34473 21.2129C8.62243 21.6119 9.10342 21.8206 9.51855 21.8486H9.53516C10.0142 21.8486 10.4564 21.5996 10.7256 21.2129L10.7266 21.2139L10.7305 21.207C11.8106 19.5509 15.3838 14.1364 15.5742 13.8477C16.4446 12.5935 16.8984 11.1174 16.8984 9.59277C16.8984 5.48332 13.5947 2.13965 9.52344 2.13965H9.51172ZM9.51172 5.04004C11.9954 5.04004 14.0117 7.07494 14.0117 9.59277C14.0117 12.1106 11.9954 14.1455 9.51172 14.1455C7.02807 14.1454 5.01172 12.1106 5.01172 9.59277C5.01173 7.07499 7.02807 5.04012 9.51172 5.04004ZM9.51172 6.94141C8.0649 6.94149 6.88673 8.1367 6.88672 9.59277C6.88672 11.0489 8.06489 12.2441 9.51172 12.2441C10.9586 12.2441 12.1367 11.0489 12.1367 9.59277C12.1367 8.13665 10.9586 6.94141 9.51172 6.94141Z" fill="#605851" stroke="white" stroke-width="0.5"/>
</svg>
