<svg width="21" height="24" viewBox="0 0 21 24" fill="none" xmlns="http://www.w3.org/2000/svg">
<path d="M18.4331 10.4418C17.6362 10.4418 16.9527 10.9355 16.6714 11.6329C16.4879 11.6075 16.3022 11.5945 16.1154 11.5945C14.0727 11.5945 12.4109 13.112 12.4109 14.9772V20.6174C12.4109 21.8623 11.2538 22.875 9.83149 22.875C8.40922 22.875 7.25206 21.8623 7.25206 20.6174V13.9903H7.96967C9.67231 13.9903 11.1071 12.9047 11.625 11.2247L13.1889 6.15138C13.5695 4.9166 13.3748 3.65862 12.6405 2.60914C12.054 1.77087 11.2248 1.22305 10.2757 1.03761C10.0703 0.434891 9.49901 -1.41602e-05 8.82771 -1.41602e-05C7.98429 -1.41602e-05 7.29814 0.686141 7.29814 1.52951C7.29814 2.37293 7.98429 3.05909 8.82771 3.05909C9.44018 3.05909 9.96945 2.69707 10.2135 2.17587C10.8148 2.33075 11.3294 2.69773 11.7187 3.25404C12.2572 4.02387 12.3939 4.91121 12.1137 5.81997L10.5499 10.8932C10.1806 12.0912 9.16779 12.8653 7.96958 12.8653H5.40936C4.21115 12.8653 3.19837 12.0912 2.82909 10.8932L1.26525 5.81997C0.985027 4.91116 1.12171 4.02392 1.66031 3.25404C2.04918 2.69825 2.56457 2.3314 3.16574 2.17648C3.40996 2.69731 3.93908 3.05904 4.55132 3.05904C5.39469 3.05904 6.08089 2.37289 6.08089 1.52947C6.08089 0.686094 5.39469 -6.10352e-05 4.55132 -6.10352e-05C3.87983 -1.41602e-05 3.30843 0.435126 3.10321 1.03803C2.14612 1.22164 1.33326 1.75915 0.738559 2.60914C0.00426363 3.65862 -0.190455 4.91665 0.190169 6.15138L1.75401 11.2247C2.27193 12.9047 3.70672 13.9903 5.40936 13.9903H6.12702V20.6173C6.12702 22.4825 7.78883 23.9999 9.83145 23.9999C11.8741 23.9999 13.5359 22.4825 13.5359 20.6173V14.9771C13.5359 13.7323 14.693 12.7195 16.1153 12.7195C16.2721 12.7195 16.4275 12.7323 16.5804 12.757C16.7706 13.6047 17.5288 14.2402 18.4331 14.2402C19.4803 14.2402 20.3323 13.3882 20.3323 12.341C20.3323 11.2937 19.4804 10.4418 18.4331 10.4418ZM8.82771 1.93409C8.60464 1.93409 8.42314 1.75259 8.42314 1.52951C8.42314 1.30644 8.60464 1.12498 8.82771 1.12498C9.05079 1.12498 9.23225 1.30644 9.23225 1.52951C9.23225 1.75264 9.05079 1.93409 8.82771 1.93409ZM4.55127 1.12498C4.77435 1.12498 4.95585 1.30644 4.95585 1.52951C4.95585 1.75259 4.77435 1.93409 4.55127 1.93409C4.32819 1.93409 4.14669 1.75259 4.14669 1.52951C4.14674 1.30648 4.32824 1.12498 4.55127 1.12498ZM18.4331 13.1152C18.0062 13.1152 17.6589 12.7679 17.6589 12.341C17.6589 11.9141 18.0062 11.5668 18.4331 11.5668C18.8601 11.5668 19.2074 11.9141 19.2074 12.341C19.2074 12.7679 18.86 13.1152 18.4331 13.1152Z" fill="#605851"/>
</svg>
