<svg width="18" height="24" viewBox="0 0 18 24" fill="none" xmlns="http://www.w3.org/2000/svg">
<path d="M16.4571 23.3143V17.8286C16.4571 15.935 14.9221 14.4 13.0286 14.4H4.8C2.90645 14.4 1.37143 15.935 1.37143 17.8286V23.3143C1.37143 23.693 1.06442 24 0.685714 24C0.307005 24 0 23.693 0 23.3143V17.8286C0 15.1776 2.14903 13.0286 4.8 13.0286H13.0286C15.6795 13.0286 17.8286 15.1776 17.8286 17.8286V23.3143C17.8286 23.693 17.5216 24 17.1429 24C16.7641 24 16.4571 23.693 16.4571 23.3143Z" fill="#605851"/>
<path d="M13.0286 5.48571C13.0286 3.21346 11.1866 1.37143 8.9143 1.37143C6.64205 1.37143 4.80002 3.21346 4.80002 5.48571C4.80002 7.75797 6.64205 9.6 8.9143 9.6V10.9714C5.88463 10.9714 3.42859 8.51539 3.42859 5.48571C3.42859 2.45604 5.88463 0 8.9143 0C11.944 0 14.4 2.45604 14.4 5.48571C14.4 8.51539 11.944 10.9714 8.9143 10.9714V9.6C11.1866 9.6 13.0286 7.75797 13.0286 5.48571Z" fill="#605851"/>
</svg>
